<svg xmlns="http://www.w3.org/2000/svg" version="1.1" xmlns:xlink="http://www.w3.org/1999/xlink" width="512" height="512" x="0" y="0" viewBox="0 0 100 100" style="enable-background:new 0 0 512 512" xml:space="preserve" class=""><g transform="matrix(1.2500000000000002,0,0,1.2500000000000002,-12.500000000000014,-12.500000000000014)"><path d="M85 56.667C85 44.694 75.3 35 63.333 35 51.367 35 41.67 44.694 41.67 56.667c-2.76 0-5 2.239-5 5v16.666c0 2.761 2.24 5 5 5h10c.918 0 1.663-.745 1.663-1.666V70c0-1.833-.667-4.675-1.487-6.315l-3.509-7.018c0-8.288 6.709-15 14.997-15 8.281 0 15 6.712 15 15l-3.509 7.018c-.82 1.641-1.491 4.482-1.491 6.315v12.051A18.42 18.42 0 0 1 63.333 85H60v5h3.333c6.384 0 12.162-2.549 16.406-6.667H85a5 5 0 0 0 5-5V61.667a5 5 0 0 0-5-5z" fill="#fc8449" opacity="1" data-original="#000000" class=""></path><path d="M63.333 30c1.133 0 2.24.094 3.334.231V16.667C66.667 13.001 63.665 10 60 10H16.667C13 10 10 13.001 10 16.667v20c0 3.666 3 6.667 6.667 6.667v10l16.667-10h6.945C44.897 35.377 53.489 30 63.333 30zM50 23.333a3.33 3.33 0 0 1 3.333 3.333A3.333 3.333 0 1 1 50 23.333zM26.667 30a3.333 3.333 0 1 1 0-6.667 3.333 3.333 0 0 1 0 6.667zM35 26.667a3.333 3.333 0 1 1 6.667 0 3.333 3.333 0 0 1-6.667 0z" fill="#fc8449" opacity="1" data-original="#000000" class=""></path></g></svg>