<svg xmlns="http://www.w3.org/2000/svg" version="1.1" xmlns:xlink="http://www.w3.org/1999/xlink" width="512" height="512" x="0" y="0" viewBox="0 0 128 128" style="enable-background:new 0 0 512 512" xml:space="preserve" class=""><g transform="matrix(1.1399999999999997,0,0,1.1399999999999997,-8.959792919158915,-8.959736976623518)"><path d="m119.632 104.264-6.832-11.45a1.759 1.759 0 0 0-3.019.021l-2.711 4.7-10.232-4.29V53.732a1.778 1.778 0 0 0-1.075-1.614L65.75 39.549v-5.585h4.75a1.752 1.752 0 0 0 1.528-2.6l-6.5-11.641a1.751 1.751 0 0 0-3.056 0l-6.5 11.641a1.752 1.752 0 0 0 1.528 2.6h4.75v5.585L32.236 52.118a1.8 1.8 0 0 0-1.074 1.614v39.513L20.929 97.53l-2.71-4.7a1.751 1.751 0 0 0-3.019-.021l-6.832 11.45a1.75 1.75 0 0 0 1.5 2.646H9.9l13.332-.192a1.751 1.751 0 0 0 1.491-2.625l-2.025-3.507 10.217-4.279 30.4 12.731h.008c.009 0 .019 0 .029.009a1.71 1.71 0 0 0 1.294 0c.009 0 .019 0 .029-.009h.008l30.4-12.731 10.218 4.279-2.025 3.507a1.752 1.752 0 0 0 1.49 2.625l13.332.192h.026a1.75 1.75 0 0 0 1.508-2.641zM64 24.162l3.519 6.3h-7.038zm-51.02 79.2 3.7-6.2 3.519 6.094zm52.77-23.135V67.914l27.588-11.552v35.417zm24.808-26.5L65.75 64.12V43.344zM62.25 43.344V64.12L37.443 53.732zM34.662 56.362 62.25 67.914v12.313L34.662 91.779zm27.588 27.66V104.8L37.443 94.41zm3.5 20.776V84.022L90.558 94.41zm42.053-1.537 3.518-6.094 3.7 6.2z" fill="#000000" opacity="1" data-original="#000000" class=""></path></g></svg>