<svg xmlns="http://www.w3.org/2000/svg" version="1.1" xmlns:xlink="http://www.w3.org/1999/xlink" width="512" height="512" x="0" y="0" viewBox="0 0 24 24" style="enable-background:new 0 0 512 512" xml:space="preserve" class=""><g transform="matrix(1.2000000000000008,0,0,1.2000000000000008,-2.4000000000000092,-2.413484430313117)"><path fill="#9e9e9e" fill-rule="evenodd" d="M10.024 2.746a3.5 3.5 0 0 1 3.952 0l6.5 4.448A3.5 3.5 0 0 1 22 10.082V18.5a3.5 3.5 0 0 1-3.5 3.5h-13A3.5 3.5 0 0 1 2 18.5v-8.418a3.5 3.5 0 0 1 1.524-2.888zM9.5 17.5a.5.5 0 0 0 0 1h5a.5.5 0 0 0 0-1z" clip-rule="evenodd" opacity="1" data-original="#000000" class=""></path></g></svg>