<svg xmlns="http://www.w3.org/2000/svg" version="1.1" xmlns:xlink="http://www.w3.org/1999/xlink" width="512" height="512" x="0" y="0" viewBox="0 0 48 48" style="enable-background:new 0 0 512 512" xml:space="preserve" class=""><g transform="matrix(1.1900000000000002,0,0,1.1900000000000002,-4.794047994613653,-4.445867381095891)"><path d="M41.16 30.5c-1.18 2.57-5.22 4.05-10.92 5.47-3.82.96-11.24 2.22-15.31 2.22-.97 0-1.75-.08-2.25-.24-1.71-.57-2.94-1.72-3.46-3.23-.56-1.65-.22-3.52.95-5.27l.3-.45c1.37-2.02 2.55-3.76 1.54-10.86-.4-2.79.16-5.2 1.65-7.16 1.91-2.5 4.98-3.69 7.22-3.97 8.15-1.02 10.27 4.01 12.51 9.34.17.41.35.83.53 1.26 1.63 3.8 2.87 4.72 4.08 5.61.95.7 1.95 1.44 2.89 3.33.72 1.44.81 2.77.27 3.95z" fill="#fc8449" opacity="1" data-original="#000000" class=""></path><path d="M15.996 9.997a.994.994 0 0 1-.944-.68 4.922 4.922 0 0 1-.167-2.084c.218-1.522 1.212-2.652 2.799-3.182 2.899-.967 4.736 1.046 5.264 2.633a1 1 0 0 1-1.896.632c-.166-.474-.867-1.99-2.736-1.367-1.875.625-1.52 2.256-1.365 2.741a1.004 1.004 0 0 1-.955 1.307zM25.41 40.03c-.18.38-.41.75-.7 1.09C23.65 42.37 22.06 43 20 43c-1.77 0-3.12-.55-4.01-1.63-.05-.06-.1-.13-.14-.2 1-.03 2.12-.12 3.3-.24 1.01-.11 2.06-.24 3.11-.39 1.07-.16 2.13-.33 3.15-.51z" fill="#fc8449" opacity="1" data-original="#000000" class=""></path></g></svg>